# AST/ASF file generated using VICON BodyLanguage
# -----------------------------------------------
:version 1.10
:name VICON
:units
  mass 1.0
  length 0.45
  angle deg
:documentation
   .ast/.asf automatically generated from VICON data using
   VICON BodyBuilder and BodyLanguage model FoxedUp or BRILLIANT.MOD
:root
   order TX TY TZ RX RY RZ
   axis XYZ
   position 0 0 0  
   orientation 0 0 0 
:bonedata
  begin
     id 1 
     name lhipjoint
     direction 0.643824 -0.71708 0.266994 
     length 2.52133 
     axis 0 0 0  XYZ
  end
  begin
     id 2 
     name lfemur
     direction 0.34202 -0.939693 0  
     length 7.51824  
     axis 0 0 20  XYZ
    dof rx ry rz
    limits (-160.0 20.0)
           (-70.0 70.0)
           (-60.0 70.0)
  end
  begin
     id 3 
     name ltibia
     direction 0.34202 -0.939693 0   
     length 7.3685   
     axis 0 0 20   XYZ
    dof rx
    limits (-10.0 170.0)
  end
  begin
     id 4 
     name lfoot
     direction 0.105419 -0.289636 0.951314   
     length 2.20972   
     axis -90 7.62852e-016 20   XYZ
    dof rx rz
    limits (-45.0 90.0)
           (-70.0 20.0)
  end
  begin
     id 5 
     name ltoes
     direction 1.53549e-011 -4.21833e-011 1   
     length 1.10139   
     axis -90 7.62852e-016 20   XYZ
    dof rx
    limits (-90.0 20.0)
  end
  begin
     id 6 
     name rhipjoint
     direction -0.608823 -0.743445 0.276811   
     length 2.43192  
     axis 0 0 0  XYZ 
  end
  begin
     id 7 
     name rfemur
     direction -0.34202 -0.939693 0   
     length 7.69715   
     axis 0 0 -20   XYZ
    dof rx ry rz
    limits (-160.0 20.0)
           (-70.0 70.0)
           (-70.0 60.0)
  end
  begin
     id 8 
     name rtibia
     direction -0.34202 -0.939693 0   
     length 7.44924   
     axis 0 0 -20   XYZ
    dof rx
    limits (-10.0 170.0)
 end
 begin
     id 9 
     name rfoot
     direction -0.103614 -0.284677 0.953007   
     length 2.22623  
     axis -90 -7.62852e-016 -20   XYZ
    dof rx rz
    limits (-45.0 90.0)
           (-20.0 70.0)
  end
  begin
     id 10 
     name rtoes
     direction -1.53537e-011 -4.22026e-011 1   
     length 1.11   
     axis -90 -7.62852e-016 -20   XYZ
    dof rx
    limits (-90.0 20.0)
  end
  begin
     id 11 
     name lowerback
     direction -0.0101212 0.99662 -0.0815298   
     length 2.08277   
     axis 0 0 0   XYZ
    dof rx ry rz
    limits (-20.0 45.0)
           (-30.0 30.0)
           (-30.0 30.0)
  end
  begin
     id 12 
     name upperback
     direction 0.024314 0.999591 -0.0150645   
     length 2.08524   
     axis 0 0 0   XYZ
    dof rx ry rz
    limits (-20.0 45.0)
           (-30.0 30.0)
           (-30.0 30.0)
  end
  begin
     id 13 
     name thorax
     direction 0.0285959 0.999323 0.0231357   
     length 2.09645   
     axis 0 0 0   XYZ
    dof rx ry rz
    limits (-20.0 45.0)
           (-30.0 30.0)
           (-30.0 30.0)
  end
  begin
     id 14 
     name lowerneck
     direction -0.065512 0.979301 0.191515   
     length 1.63798   
     axis 0 0 0   XYZ
    dof rx ry rz
    limits (-20.0 45.0)
           (-30.0 30.0)
           (-30.0 30.0)
  end
  begin
     id 15 
     name upperneck
     direction 0.0498479 0.98191 -0.182667   
     length 1.68731   
     axis 0 0 0   XYZ
    dof rx ry rz
    limits (-20.0 45.0)
           (-30.0 30.0)
           (-30.0 30.0)
  end
  begin
     id 16
     name head
     direction 0.0230358 0.996257 -0.0833175  
     length 1.69785  
     axis 0 0 0   XYZ
    dof rx ry rz
    limits (-20.0 45.0)
           (-30.0 30.0)
           (-30.0 30.0)
  end
  begin
     id 17 
     name lclavicle
     direction 0.967963 0.201165 -0.150269  
     length 3.63976  
     axis 0 0 0   XYZ
    dof ry rz
    limits (-20.0 10.0)
           (0.0 20.0)
  end
  begin
     id 18 
     name lhumerus
     direction 1 -4.48954e-011 -2.92837e-028   
     length 5.32462   
     axis 180 -30 -90   XYZ
    dof rx ry rz
    limits (-60.0 90.0)
           (-90.0 90.0)
           (-90.0 90.0)
  end
  begin
     id 19
     name lradius
     direction 1 -4.48958e-011 -6.39511e-027   
     length 3.48402   
     axis 180 -30 -90   XYZ
    dof rx
    limits (-10.0 170.0)
  end
  begin
     id 20
     name lwrist
     direction 1 -4.48975e-011 -1.1413e-026   
     length 1.74201   
     axis 6.88575e-015 90 90   XYZ
    dof ry
    limits (-180.0 0.0)
 end
  begin
     id 21 
     name lhand
     direction 1 -4.48899e-011 -2.28192e-026   
     length 0.572476   
     axis 1.45643e-014 90 90   XYZ
    dof rx rz
    limits (-90.0 90.0)
           (-45.0 45.0)
  end
  begin
     id 22 
     name lfingers
     direction 1 -4.49155e-011 -4.5684e-026   
     length 0.461545   
     axis 2.91283e-014 90 90   XYZ
    dof rx
    limits (0.0 90.0)
  end
  begin
     id 23
     name lthumb
     direction 0.707107 -6.34943e-011 0.707107   
     length 0.662688   
     axis -90 45 -2.25915e-014   XYZ
    dof rx rz
    limits (-45.0 45.0)
           (-45.0 45.0)
  end
  begin
     id 24 
     name rclavicle
     direction -0.964103 0.264019 -0.0282629   
     length 3.54491  
     axis 0 0 0   XYZ 
    dof ry rz
    limits (-10.0 20.0)
           (-20.0 0.0)
  end
  begin
     id 25 
     name rhumerus
     direction -1 -4.48964e-011 -2.45032e-027  
     length 5.33589   
     axis 180 30 90   XYZ
    dof rx ry rz
    limits (-90.0 60.0)
           (-90.0 90.0)
           (-90.0 90.0)
  end
  begin
     id 26 
     name rradius
     direction -1 -4.48987e-011 -1.55093e-027   
     length 3.64134   
     axis 180 30 90   XYZ
    dof rx
    limits (-10.0 170.0)
  end
  begin
     id 27 
     name rwrist
     direction -1 -4.4897e-011 -1.14128e-026   
     length 1.82067   
     axis 6.88575e-015 -90 -90   XYZ
    dof ry
    limits (-180.0 0.0)
  end
  begin
     id 28
     name rhand
     direction -1 -4.49021e-011 -2.28301e-026   
     length 0.734811   
     axis 1.45643e-014 -90 -90   XYZ
    dof rx rz
    limits (-90.0 90.0)
           (-45.0 45.0)
  end
  begin
     id 29
     name rfingers
     direction -1 -4.48862e-011 -4.56319e-026   
     length 0.592424   
     axis 2.91283e-014 -90 -90   XYZ
    dof rx
    limits (0.0 90.0)
  end
  begin
     id 30
     name rthumb
     direction -0.707107 -6.34978e-011 0.707107   
     length 0.850605   
     axis -90 -45 2.25915e-014   XYZ
    dof rx rz
    limits (-45.0 45.0)
           (-45.0 45.0)
  end
:hierarchy
  begin
    root lhipjoint rhipjoint lowerback
    lhipjoint lfemur
    lfemur ltibia
    ltibia lfoot
    lfoot ltoes
    rhipjoint rfemur
    rfemur rtibia
    rtibia rfoot
    rfoot rtoes
    lowerback upperback
    upperback thorax
    thorax lowerneck lclavicle rclavicle
    lowerneck upperneck
    upperneck head
    lclavicle lhumerus
    lhumerus lradius
    lradius lwrist
    lwrist lhand lthumb
    lhand lfingers
    rclavicle rhumerus
    rhumerus rradius
    rradius rwrist
    rwrist rhand rthumb
    rhand rfingers
  end

#!OML:ASF F:\VICON\USERDATA\INSTALL\rory3\rory3.ASF
:FULLY-SPECIFIED
:DEGREES
1
root -0.679606 17.5123 4.69555 0.469098 -35.5328 3.11188
lowerback 0.285657 -1.19729 -6.60075
upperback -0.577342 -1.62973 2.17939
thorax -0.510031 -0.781331 5.98186
lowerneck -18.4969 -4.42032 -13.7232
upperneck 30.5677 -3.3962 4.03082
head 13.8592 -2.63057 3.34344
rclavicle 7.06928e-015 1.19271e-014
rhumerus -37.5036 -18.0999 -71.0908
rradius 27.1786
rwrist 12.3813
rhand -23.0519 4.87749
rfingers 7.12502
rthumb 3.39295 -25.0753
lclavicle 7.06928e-015 1.19271e-014
lhumerus -33.9697 16.5688 80.7395
lradius 23.4195
lwrist -8.8821
lhand -17.5859 23.3019
lfingers 7.12502
lthumb 8.66995 53.1039
rfemur -21.217 -2.08743 18.8805
rtibia 41.4944
rfoot -22.8142 -11.2563
rtoes 9.40271
lfemur -3.32566 -1.49672 -26.0564
ltibia 29.1603
lfoot -18.6981 4.44182
ltoes -11.0824
2
root -0.696539 17.5183 4.69698 0.529584 -35.4436 3.08526
lowerback 0.342844 -1.19648 -6.5405
upperback -0.601027 -1.63239 2.1782
thorax -0.567911 -0.780069 5.94802
lowerneck -18.4525 -4.42191 -13.6211
upperneck 30.5189 -3.4257 3.98888
head 13.8275 -2.63522 3.30339
rclavicle -8.0632e-015 -1.74931e-014
rhumerus -37.4546 -17.9854 -71.2661
rradius 27.2614
rwrist 12.5768
rhand -23.0869 4.58769
rfingers 7.12502
rthumb 3.35918 -25.3656
lclavicle -8.0632e-015 -1.74931e-014
lhumerus -33.9577 16.402 80.8665
lradius 23.5084
lwrist -8.77892
lhand -17.5926 23.2954
lfingers 7.12502
lthumb 8.66348 53.0976
rfemur -21.148 -2.13443 18.9467
rtibia 41.3726
rfoot -22.8401 -11.2283
rtoes 9.52783
lfemur -3.36151 -1.56703 -25.9688
ltibia 29.1622
lfoot -18.6061 4.35965
ltoes -11.1276
3
root -0.716917 17.5263 4.70264 0.65833 -35.4409 3.06774
lowerback 0.169207 -1.15488 -6.47986
upperback -0.582287 -1.56509 2.18553
thorax -0.462426 -0.75113 5.9167
lowerneck -18.4528 -4.47572 -13.6151
upperneck 30.4671 -3.50234 3.98316
head 13.8136 -2.66566 3.28549
rclavicle 1.22377e-014 3.18055e-015
rhumerus -37.3286 -17.9453 -71.4136
rradius 27.3449
rwrist 12.7729
rhand -22.8805 4.3226
rfingers 7.12502
rthumb 3.55847 -25.6274
lclavicle 1.22377e-014 3.18055e-015
lhumerus -33.7703 16.2055 81.0967
lradius 23.4847
lwrist -8.63274
lhand -17.5342 23.4454
lfingers 7.12502
lthumb 8.71983 53.2452
rfemur -21.1295 -2.06933 18.998
rtibia 41.2231
rfoot -22.8424 -11.2608
rtoes 9.59493
lfemur -3.43206 -1.74952 -25.9167
ltibia 29.1682
lfoot -18.5448 4.34483
ltoes -10.1881
4
root -0.738403 17.5332 4.70785 0.752066 -35.5015 2.97374
lowerback 0.0459244 -1.06319 -6.38964
upperback -0.531945 -1.43356 2.23278
thorax -0.361703 -0.69074 5.91182
lowerneck -18.419 -4.57362 -13.8
upperneck 30.3865 -3.62862 4.11305
head 13.7942 -2.72043 3.34576
rclavicle 2.07481e-015 -6.36111e-015
rhumerus -37.1757 -17.6204 -71.6467
rradius 27.4991
rwrist 12.6236
rhand -22.5952 3.96731
rfingers 7.12502
rthumb 3.83397 -25.9779
lclavicle 2.07481e-015 -6.36111e-015
lhumerus -33.5849 16.0457 81.3398
lradius 23.4594
lwrist -8.51701
lhand -17.4174 23.4611
lfingers 7.12502
lthumb 8.83252 53.2563
rfemur -21.0192 -1.91919 19.1235
rtibia 41.066
rfoot -22.9372 -11.2128
rtoes 10.2549
lfemur -3.41254 -1.88257 -25.8181
ltibia 29.2029
lfoot -18.4116 4.40903
ltoes -9.13803
5
root -0.755445 17.5394 4.70533 0.803736 -35.4319 2.89529
lowerback 0.121688 -1.01871 -6.30069
upperback -0.542701 -1.37865 2.22496
thorax -0.425785 -0.660882 5.85476
lowerneck -18.185 -4.63067 -13.8184
upperneck 30.1702 -3.77416 4.21378
head 13.6687 -2.76521 3.36194
rclavicle 9.528e-014 1.19271e-014
rhumerus -37.0983 -17.3906 -71.9056
rradius 27.6147
rwrist 12.5546
rhand -22.4191 3.83019
rfingers 7.12502
rthumb 4.00405 -26.1119
lclavicle 9.528e-014 1.19271e-014
lhumerus -33.5203 15.7121 81.5065
lradius 23.6316
lwrist -8.31165
lhand -17.3647 23.5524
lfingers 7.12502
lthumb 8.8834 53.3455
rfemur -20.9085 -1.86175 19.2611
rtibia 40.9148
rfoot -22.8566 -11.3843
rtoes 9.79787
lfemur -3.41706 -1.95024 -25.6887
ltibia 29.2297
lfoot -18.2271 4.42148
ltoes -9.27143
6
root -0.772015 17.5461 4.7023 0.92911 -35.281 2.80427
lowerback 0.0943093 -1.0489 -6.18771
upperback -0.516165 -1.41641 2.21661
thorax -0.380131 -0.682676 5.78045
lowerneck -18.0374 -4.65629 -13.8342
upperneck 29.9646 -3.86367 4.32941
head 13.5608 -2.78315 3.39323
rclavicle 6.17226e-014 -3.02153e-014
rhumerus -36.8792 -17.1019 -72.2571
rradius 27.7099
rwrist 12.6102
rhand -22.3224 3.78142
rfingers 7.12502
rthumb 4.09745 -26.1589
lclavicle 6.17226e-014 -3.02153e-014
lhumerus -33.3727 15.606 81.5683
lradius 23.7907
lwrist -8.28455
lhand -17.2807 23.552
lfingers 7.12502
lthumb 8.96453 53.3415
rfemur -20.863 -1.83227 19.4094
rtibia 40.7665
rfoot -22.8312 -11.5908
rtoes 9.32032
lfemur -3.51993 -2.01437 -25.5221
ltibia 29.2682
lfoot -18.1878 4.33363
ltoes -9.693
7
root -0.791528 17.5521 4.70562 1.0038 -35.1861 2.80861
lowerback -0.078129 -1.03001 -6.13076
upperback -0.423365 -1.37922 2.17472
thorax -0.194977 -0.673393 5.69931
lowerneck -18.1601 -4.72754 -13.842
upperneck 29.9386 -3.98303 4.45588
head 13.5914 -2.81543 3.42353
rclavicle 5.14355e-015 -1.03368e-014
rhumerus -36.6229 -17.1303 -72.471
rradius 27.7233
rwrist 12.9809
rhand -22.2364 4.03802
rfingers 7.12502
rthumb 4.18047 -25.9007
lclavicle 5.14355e-015 -1.03368e-014
lhumerus -33.1245 15.3725 81.7226
lradius 23.8902
lwrist -8.19107
lhand -17.2099 23.5166
lfingers 7.12502
lthumb 9.03279 53.3033
rfemur -20.8064 -1.79942 19.4591
rtibia 40.633
rfoot -22.9289 -11.702
rtoes 9.48176
lfemur -3.56814 -2.10132 -25.4766
ltibia 29.2858
lfoot -18.1534 4.2866
ltoes -9.48359
8
root -0.809601 17.5568 4.70841 1.1232 -35.1194 2.75562
lowerback -0.174155 -0.983714 -6.03314
upperback -0.415567 -1.31158 2.16115
thorax -0.145131 -0.641671 5.62784
lowerneck -18.2154 -4.78488 -13.7827
upperneck 29.9564 -4.07903 4.46247
head 13.6198 -2.84888 3.3993
rclavicle -4.36332e-014 8.74653e-015
rhumerus -36.5124 -17.006 -72.6306
rradius 27.748
rwrist 13.1669
rhand -22.2846 4.396
rfingers 7.12502
rthumb 4.13392 -25.5436
lclavicle -4.36332e-014 8.74653e-015
lhumerus -32.9367 15.0605 81.9277
lradius 23.9256
lwrist -8.17062
lhand -17.2614 23.5695
lfingers 7.12502
lthumb 8.9831 53.3583
rfemur -20.7842 -1.75179 19.5588
rtibia 40.522
rfoot -23.0227 -11.7764
rtoes 9.70675
lfemur -3.61545 -2.27728 -25.4052
ltibia 29.2613
lfoot -18.1446 4.4168
ltoes -9.88968
9
root -0.82793 17.564 4.71194 1.17192 -35.0594 2.81206
lowerback -0.219208 -0.948776 -6.07616
upperback -0.45439 -1.26298 2.17279
thorax -0.165738 -0.615421 5.66453
lowerneck -18.0546 -4.82068 -13.7693
upperneck 29.8256 -4.14341 4.41492
head 13.5359 -2.87825 3.36534
rclavicle -2.81032e-014 -1.51076e-014
rhumerus -36.4905 -16.4266 -72.8895
rradius 27.999
rwrist 12.9491
rhand -22.2897 4.2799
rfingers 7.12502
rthumb 4.12906 -25.6598
lclavicle -2.81032e-014 -1.51076e-014
lhumerus -32.7635 14.7408 82.1836
lradius 23.9329
lwrist -8.12101
lhand -17.5443 23.6669
lfingers 7.12502
lthumb 8.71014 53.4672
rfemur -20.7762 -1.73475 19.5556
rtibia 40.4271
rfoot -22.9846 -11.8948
rtoes 9.28224
lfemur -3.63799 -2.40967 -25.4254
ltibia 29.2112
lfoot -18.0434 4.48175
ltoes -10.0548
10
root -0.844957 17.5689 4.71773 1.09531 -34.9851 2.99668
lowerback -0.228359 -0.907565 -6.18695
upperback -0.46559 -1.20753 2.14305
thorax -0.178587 -0.586534 5.69687
lowerneck -17.8791 -4.87499 -13.8175
upperneck 29.6755 -4.24124 4.44381
head 13.4484 -2.91842 3.36677
rclavicle 8.57259e-015 4.77083e-015
rhumerus -36.3656 -15.8889 -73.2322
rradius 28.2306
rwrist 12.7116
rhand -22.086 3.88934
rfingers 7.12502
rthumb 4.32571 -26.0465
lclavicle 8.57259e-015 4.77083e-015
lhumerus -32.5687 14.2753 82.4765
lradius 23.9635
lwrist -7.89665
lhand -17.7168 23.5651
lfingers 7.12502
lthumb 8.54363 53.3723
rfemur -20.7034 -1.77582 19.4184
rtibia 40.3488
rfoot -23.0057 -11.8757
rtoes 9.31339
lfemur -3.6043 -2.39287 -25.5422
ltibia 29.1654
lfoot -17.863 4.36911
ltoes -9.78795
11
root -0.859834 17.5705 4.7229 1.04202 -34.901 3.07784
lowerback -0.229666 -0.897356 -6.18328
upperback -0.419518 -1.19294 2.12321
thorax -0.132793 -0.582122 5.67354
lowerneck -17.8491 -4.90893 -13.9022
upperneck 29.5848 -4.30647 4.57344
head 13.4163 -2.93554 3.42052
rclavicle -4.08254e-014 -8.74653e-015
rhumerus -36.1162 -14.598 -74.0643
rradius 28.7904
rwrist 11.518
rhand -21.9225 2.75424
rfingers 7.12502
rthumb 4.48357 -27.1783
lclavicle -4.08254e-014 -8.74653e-015
lhumerus -32.3814 13.9936 82.6804
lradius 24.0689
lwrist -7.70706
lhand -17.6355 23.4321
lfingers 7.12502
lthumb 8.62206 53.2361
rfemur -20.5928 -1.79924 19.3729
rtibia 40.2716
rfoot -23.0063 -11.864
rtoes 9.39252
lfemur -3.5522 -2.3681 -25.5627
ltibia 29.1462
lfoot -17.8158 4.29439
ltoes -10.0863
12
root -0.875012 17.5745 4.72694 1.12766 -34.8719 3.07612
lowerback -0.278314 -0.900792 -6.11565
upperback -0.417814 -1.19468 2.13033
thorax -0.104618 -0.584198 5.64154
lowerneck -17.8197 -4.91207 -13.8627
upperneck 29.4587 -4.30946 4.52883
head 13.3548 -2.93335 3.39337
rclavicle -9.51185e-014 2.22639e-014
rhumerus -35.9717 -12.8518 -75.0274
rradius 29.5453
rwrist 10.0416
rhand -21.9727 1.52318
rfingers 7.12502
rthumb 4.43512 -28.4104
lclavicle -9.51185e-014 2.22639e-014
lhumerus -32.2732 13.9868 82.771
lradius 24.2349
lwrist -7.70016
lhand -17.4006 23.4951
lfingers 7.12502
lthumb 8.84875 53.2895
rfemur -20.5914 -1.75573 19.4059
rtibia 40.1949
rfoot -23.07 -11.8674
rtoes 9.59712
lfemur -3.61904 -2.3493 -25.5238
ltibia 29.1508
lfoot -17.7355 4.31494
ltoes -10.6845
13
root -0.89072 17.5781 4.72521 1.21468 -34.8326 3.03035
lowerback -0.255897 -0.893082 -6.05588
upperback -0.420219 -1.18585 2.15717
thorax -0.121556 -0.579255 5.6361
lowerneck -17.7696 -4.93508 -13.8307
upperneck 29.3465 -4.33787 4.46755
head 13.2981 -2.94621 3.35688
rclavicle 1.73937e-014 -1.43125e-014
rhumerus -35.7845 -12.2108 -75.3414
rradius 29.7202
rwrist 9.91328
rhand -21.9961 1.76657
rfingers 7.12502
rthumb 4.41249 -28.1675
lclavicle 1.73937e-014 -1.43125e-014
lhumerus -32.1753 14.0308 82.8611
lradius 24.4495
lwrist -7.77192
lhand -17.0824 23.6188
lfingers 7.12502
lthumb 9.15583 53.4001
rfemur -20.5797 -1.6332 19.4899
rtibia 40.1231
rfoot -23.2106 -11.8769
rtoes 10.3853
lfemur -3.68732 -2.42347 -25.4268
ltibia 29.154
lfoot -17.6755 4.27712
ltoes -10.4622
14
root -0.906222 17.581 4.72385 1.29448 -34.7325 2.97527
lowerback -0.272655 -0.896629 -5.98156
upperback -0.388036 -1.1892 2.17744
thorax -0.0794121 -0.58345 5.6143
lowerneck -17.835 -4.97456 -13.9316
upperneck 29.3349 -4.39685 4.61283
head 13.3202 -2.96221 3.42101
rclavicle 4.78574e-014 -5.56597e-015
rhumerus -35.535 -12.4373 -75.2063
rradius 29.5341
rwrist 10.9713
rhand -21.6281 2.91812
rfingers 7.12502
rthumb 4.76786 -27.0082
lclavicle 4.78574e-014 -5.56597e-015
lhumerus -32.0032 13.7111 83.085
lradius 24.6712
lwrist -7.55566
lhand -17.1244 23.6019
lfingers 7.12502
lthumb 9.11534 53.3849
rfemur -20.5387 -1.5705 19.5833
rtibia 40.0531
rfoot -23.2546 -11.9493
rtoes 10.7497
lfemur -3.71512 -2.57247 -25.3246
ltibia 29.1605
lfoot -17.6905 4.2513
ltoes -10.1352
15
root -0.920387 17.5832 4.72706 1.28934 -34.6462 3.03433
lowerback -0.262238 -0.87891 -5.99578
upperback -0.372681 -1.1659 2.2015
thorax -0.0719241 -0.572439 5.64786
lowerneck -17.8966 -5.03019 -14.1042
upperneck 29.3675 -4.46886 4.79099
head 13.3654 -2.98941 3.509
rclavicle -2.81777e-014 -1.51076e-014
rhumerus -35.3294 -12.6774 -74.9568
rradius 29.3774
rwrist 12.261
rhand -20.9695 4.0446
rfingers 7.12502
rthumb 5.40378 -25.8665
lclavicle -2.81777e-014 -1.51076e-014
lhumerus -31.7998 13.1574 83.4602
lradius 24.8214
lwrist -7.19727
lhand -17.1125 23.5968
lfingers 7.12502
lthumb 9.12675 53.3793
rfemur -20.4852 -1.64235 19.562
rtibia 39.9834
rfoot -23.1797 -12.0131
rtoes 10.346
lfemur -3.71064 -2.69772 -25.3352
ltibia 29.1749
lfoot -17.7848 4.24379
ltoes -10.192
